HIERARCHY
ROOT Hips
{
	OFFSET 0.000000 0.000000 0.000000
	CHANNELS 6 Xposition Yposition Zposition Xrotation Yrotation Zrotation
	JOINT LeftUpLeg_virtual
	{
		OFFSET 0.000000 0.000000 0.000000
		CHANNELS 3 Xrotation Yrotation Zrotation
		JOINT LeftUpLeg
		{
			OFFSET 15.427100 -6.655098 0.678600
			CHANNELS 3 Xrotation Yrotation Zrotation
			JOINT LeftLeg
			{
				OFFSET 4.081073 -39.591068 13.024000
				CHANNELS 3 Xrotation Yrotation Zrotation
				JOINT LeftFoot
				{
					OFFSET -4.081074 -37.707932 -15.979700
					CHANNELS 3 Xrotation Yrotation Zrotation
					JOINT LeftToeBase
					{
						OFFSET 5.346399 -15.068900 20.645000
						CHANNELS 3 Xrotation Yrotation Zrotation
						JOINT LeftToe_End
						{
							OFFSET 2.754700 0.931300 11.300900
							CHANNELS 3 Xrotation Yrotation Zrotation
							End Site
							{
								OFFSET 0 0 0
							}
						}
					}
				}
			}
		}
	}
	JOINT RightUpLeg_virtual
	{
		OFFSET 0.000000 0.000000 0.000000
		CHANNELS 3 Xrotation Yrotation Zrotation
		JOINT RightUpLeg
		{
			OFFSET -15.569500 -6.655098 0.678600
			CHANNELS 3 Xrotation Yrotation Zrotation
			JOINT RightLeg
			{
				OFFSET -4.081825 -39.591045 13.023800
				CHANNELS 3 Xrotation Yrotation Zrotation
				JOINT RightFoot
				{
					OFFSET 4.081824 -37.707954 -15.979600
					CHANNELS 3 Xrotation Yrotation Zrotation
					JOINT RightToeBase
					{
						OFFSET -5.346400 -15.068900 20.645000
						CHANNELS 3 Xrotation Yrotation Zrotation
						JOINT RightToe_End
						{
							OFFSET -2.754700 0.931300 11.300900
							CHANNELS 3 Xrotation Yrotation Zrotation
							End Site
							{
								OFFSET 0 0 0
							}
						}
					}
				}
			}
		}
	}
	JOINT Spine_virtual
	{
		OFFSET 0.000000 0.000000 0.000000
		CHANNELS 3 Xrotation Yrotation Zrotation
		JOINT Spine
		{
			OFFSET -0.279200 12.230698 -2.892100
			CHANNELS 3 Xrotation Yrotation Zrotation
			JOINT Spine1
			{
				OFFSET -0.232667 10.192268 -1.242267
				CHANNELS 3 Xrotation Yrotation Zrotation
				JOINT Spine1_split
				{
					OFFSET -0.232667 10.192268 -1.242267
					CHANNELS 3 Xrotation Yrotation Zrotation
					JOINT Spine2
					{
						OFFSET -0.232667 10.192268 -1.242267
						CHANNELS 3 Xrotation Yrotation Zrotation
						JOINT Neck_virtual
						{
							OFFSET 0.000000 0.000000 0.000000
							CHANNELS 3 Xrotation Yrotation Zrotation
							JOINT Neck
							{
								OFFSET -0.418800 17.814194 8.416900
								CHANNELS 3 Xrotation Yrotation Zrotation
								JOINT Head
								{
									OFFSET 0.000000 7.031097 3.806800
									CHANNELS 3 Xrotation Yrotation Zrotation
									JOINT HeadTop_End
									{
										OFFSET 0.000000 24.646606 12.978600
										CHANNELS 3 Xrotation Yrotation Zrotation
										End Site
										{
											OFFSET 0 0 0
										}
									}
								}
							}
						}
						JOINT LeftShoulder_virtual
						{
							OFFSET 0.000000 0.000000 0.000000
							CHANNELS 3 Xrotation Yrotation Zrotation
							JOINT LeftShoulder
							{
								OFFSET 8.476499 7.247704 -3.868750
								CHANNELS 3 Xrotation Yrotation Zrotation
								JOINT LeftShoulder_split
								{
									OFFSET 8.476499 7.247704 -3.868750
									CHANNELS 3 Xrotation Yrotation Zrotation
									JOINT LeftArm
									{
										OFFSET 9.308998 -2.777710 0.208600
										CHANNELS 3 Xrotation Yrotation Zrotation
										JOINT LeftForeArm
										{
											OFFSET 29.972298 0.000000 0.000000
											CHANNELS 3 Xrotation Yrotation Zrotation
											JOINT LeftHand
											{
												OFFSET 26.026505 0.000000 0.000000
												CHANNELS 3 Xrotation Yrotation Zrotation
												End Site
												{
													OFFSET 0 0 0
												}
											}
										}
									}
								}
							}
						}
						JOINT RightShoulder_virtual
						{
							OFFSET 0.000000 0.000000 0.000000
							CHANNELS 3 Xrotation Yrotation Zrotation
							JOINT RightShoulder
							{
								OFFSET -7.570500 7.247704 -3.868750
								CHANNELS 3 Xrotation Yrotation Zrotation
								JOINT RightShoulder_split
								{
									OFFSET -7.570500 7.247704 -3.868750
									CHANNELS 3 Xrotation Yrotation Zrotation
									JOINT RightArm
									{
										OFFSET -9.308998 -2.777710 0.208500
										CHANNELS 3 Xrotation Yrotation Zrotation
										JOINT RightForeArm
										{
											OFFSET -29.972300 0.000000 0.000000
											CHANNELS 3 Xrotation Yrotation Zrotation
											JOINT RightHand
											{
												OFFSET -26.026505 0.000000 0.000000
												CHANNELS 3 Xrotation Yrotation Zrotation
												End Site
												{
													OFFSET 0 0 0
												}
											}
										}
									}
								}
							}
						}
					}
				}
			}
		}
	}
}
MOTION
Frames: 8
Frame Time: 0.03333333
-5.644680 81.644592 14.194248 0.000000 0.000000 0.000000 -3.865866 -28.141428 -1.452940 -28.438343 -5.700090 5.780845 35.287544 -2.966847 2.593831 -11.588731 -8.314741 -3.657152 -1.038171 0.831469 3.160251 0.000000 0.000000 0.000000 -7.867374 -22.653888 -0.803387 -8.043548 -6.678711 2.957634 37.599604 6.860248 -0.537865 -26.078458 0.044868 -0.733106 -1.178563 2.441007 4.226883 0.000000 0.000000 0.000000 -5.773480 -39.708876 -1.798726 13.626704 8.855874 4.002701 -3.298960 19.086129 1.082651 -0.753138 5.541856 0.715981 0.000000 0.000000 0.000000 13.372774 21.753840 -5.175396 -1.669001 15.106488 3.775917 6.063722 49.026019 -4.591801 0.000000 0.000000 0.000000 13.120293 22.400457 -4.227551 7.458874 -9.581909 -5.207787 2.769783 -9.607073 -3.083523 -33.244532 3.886187 -54.591339 -83.245683 12.703605 -86.083039 0.000000 0.000000 0.000000 16.567831 22.271830 -5.828944 5.057368 20.980048 -9.339118 -11.464637 -1.984287 -10.032949 0.152471 36.414334 49.940554 -123.723426 69.970288 114.467400 0.000000 0.000000 0.000000 
-7.026317 81.939850 13.243893 0.000000 0.000000 0.000000 -4.414516 -25.296369 -0.900538 -26.695678 -3.491280 5.958503 30.825573 -1.709749 2.551106 -12.553141 -8.315410 -5.451204 -0.710255 1.375950 3.602178 0.000000 0.000000 0.000000 -8.324255 -19.554835 -0.210682 -7.101347 -6.794098 2.676525 35.959648 6.143759 1.470887 -25.496324 0.495183 -1.820542 -0.522296 2.821247 3.777857 0.000000 0.000000 0.000000 -7.071064 -36.523610 -1.742119 14.932935 8.509255 4.078862 -3.630916 19.293080 0.756377 -0.478205 5.297269 0.938749 0.000000 0.000000 0.000000 13.676690 21.653810 -5.510575 -4.155237 14.953886 3.404104 6.345167 48.165941 -4.768372 0.000000 0.000000 0.000000 12.814212 22.494335 -4.380314 7.525644 -9.070479 -5.130545 4.523741 -10.270929 -3.204231 -35.032918 4.961446 -54.568468 -84.691129 12.640056 -86.611150 0.000000 0.000000 0.000000 15.815112 21.995965 -6.169268 4.715432 21.407362 -8.653434 -11.930530 -1.733951 -10.411461 0.979382 37.220990 47.620847 -124.040251 68.993599 114.821231 0.000000 0.000000 0.000000 
-8.103108 82.281616 12.824017 0.000000 0.000000 0.000000 -4.912173 -22.396158 -0.530862 -25.439629 0.122628 7.194686 27.051427 -0.138703 2.337373 -13.319762 -7.806263 -7.368762 -0.654134 2.002627 4.151142 0.000000 0.000000 0.000000 -8.513201 -16.688075 0.258336 -6.419032 -6.665413 1.856851 34.801993 5.034426 3.268206 -24.768812 0.516205 -2.961015 0.746335 3.105214 3.250399 0.000000 0.000000 0.000000 -7.978779 -33.597277 -1.706204 16.177096 8.155639 4.004895 -4.015373 19.238095 0.454944 -0.311225 4.883185 1.044082 0.000000 0.000000 0.000000 13.728156 21.389371 -5.680064 -6.996926 14.748600 3.593660 7.022319 47.148574 -5.103399 0.000000 0.000000 0.000000 12.483569 22.290800 -4.557995 7.853255 -9.124247 -4.124157 6.127083 -10.459233 -3.644534 -36.421140 4.375577 -54.073993 -85.679812 12.564294 -85.932017 0.000000 0.000000 0.000000 14.858464 21.537499 -6.302052 4.265290 21.714251 -7.612793 -10.908496 -0.648161 -11.204250 1.845806 38.417919 44.994127 -125.033129 68.584293 115.878312 0.000000 0.000000 0.000000 
-8.647613 82.661858 12.819210 0.000000 0.000000 0.000000 -5.246879 -19.398041 -0.474571 -25.035456 4.464154 9.569178 25.289110 1.540389 2.008423 -13.642287 -7.092985 -9.374576 -1.337200 2.682652 4.854825 0.000000 0.000000 0.000000 -8.417555 -13.858783 0.513521 -5.932080 -6.318171 0.912920 34.091171 3.601607 4.578048 -24.038345 0.133628 -4.060909 1.966584 3.253140 2.768916 0.000000 0.000000 0.000000 -8.213504 -30.680732 -1.644695 17.037326 7.918996 3.780238 -4.441941 19.013812 0.319820 -0.352987 4.314246 0.971120 0.000000 0.000000 0.000000 13.526081 21.085074 -5.600533 -9.664159 14.231430 4.454657 7.342540 45.875102 -5.341209 0.000000 0.000000 0.000000 11.882350 21.924639 -4.553278 8.342821 -9.679970 -2.273286 7.437821 -10.690698 -4.087912 -37.520012 2.938418 -53.101910 -86.555818 12.486136 -84.492391 0.000000 0.000000 0.000000 13.728691 21.040770 -6.096940 3.675751 21.731871 -6.439297 -8.758320 1.071474 -12.329431 2.817713 39.509267 41.916827 -128.375687 68.702428 119.170900 0.000000 0.000000 0.000000 
-8.760030 83.248245 13.026924 0.000000 0.000000 0.000000 -5.187881 -15.961324 -0.761348 -25.805307 8.737904 13.054581 26.301025 3.312091 1.471963 -13.541874 -6.416750 -11.346661 -2.451886 3.402512 5.652013 0.000000 0.000000 0.000000 -8.170689 -10.905076 0.462730 -5.893627 -5.936594 -0.081699 33.543472 2.112699 5.194113 -23.316446 -0.453113 -4.658747 2.309452 3.256939 2.395488 0.000000 0.000000 0.000000 -7.722839 -27.696250 -1.580809 17.189776 7.823091 3.417708 -4.936081 18.560998 0.449805 -0.584167 3.513462 0.655069 0.000000 0.000000 0.000000 13.081880 20.711198 -5.216499 -11.447473 13.389953 5.582570 6.918970 44.323994 -5.453084 0.000000 0.000000 0.000000 11.007990 21.435756 -4.243881 8.874874 -10.472484 0.151653 8.552737 -11.606404 -4.348566 -38.257549 1.839031 -51.725064 -88.152580 12.262566 -83.177060 0.000000 0.000000 0.000000 12.558602 20.522348 -5.461882 3.048123 21.202475 -5.449303 -6.443229 2.294799 -13.532043 3.346371 39.739273 38.873472 -135.517606 68.846039 126.042071 0.000000 0.000000 0.000000 
-8.622059 84.041603 13.284424 0.000000 0.000000 0.000000 -4.873646 -11.852913 -1.287286 -27.521752 12.250151 17.527672 29.843019 4.968223 0.717053 -12.725917 -5.904035 -13.553661 -3.561444 4.177243 6.421851 0.000000 0.000000 0.000000 -8.035561 -7.600151 0.191047 -6.456388 -5.841813 -1.175802 33.300966 0.764056 5.108080 -22.605501 -1.078953 -4.516228 1.733646 3.132223 2.185457 0.000000 0.000000 0.000000 -6.822207 -24.207080 -1.535839 16.434571 7.897659 2.953361 -5.355625 17.777768 0.827407 -1.151446 3.016707 0.433904 0.000000 0.000000 0.000000 12.517175 20.148189 -4.553647 -11.908135 12.587801 6.535980 5.745213 43.003353 -5.898973 0.000000 0.000000 0.000000 9.900667 20.760158 -3.599882 9.332280 -11.201573 2.716818 9.408573 -12.602322 -4.525677 -39.007251 2.079755 -50.205961 -90.706531 11.925798 -82.331066 0.000000 0.000000 0.000000 11.482299 19.860645 -4.474681 2.593678 20.152301 -5.076748 -4.784984 2.178809 -14.173190 3.203016 38.599127 36.454543 -145.787574 68.299071 135.795745 0.000000 0.000000 0.000000 
-8.470135 84.903946 13.189659 0.000000 0.000000 0.000000 -4.495343 -7.103024 -1.866000 -29.639725 14.799072 22.517759 34.775546 6.363418 -0.358691 -11.215982 -5.570280 -16.096608 -4.396816 4.964531 7.169843 0.000000 0.000000 0.000000 -8.063656 -3.803758 -0.097779 -7.613961 -6.191794 -2.539058 33.457443 -0.474352 4.424922 -22.043280 -1.605147 -3.834868 1.569271 2.931378 2.133684 0.000000 0.000000 0.000000 -5.664626 -20.082261 -1.477484 14.840656 8.139624 2.491568 -5.464014 16.553585 1.352677 -1.400664 2.603160 0.090271 0.000000 0.000000 0.000000 11.964523 19.164304 -3.703465 -11.107483 11.982217 6.818680 4.386412 42.151638 -7.136362 0.000000 0.000000 0.000000 8.827537 19.687213 -2.789021 9.695136 -11.664822 4.858452 10.047078 -13.004072 -4.520909 -39.715412 3.809014 -49.034300 -93.790095 11.515993 -81.808898 0.000000 0.000000 0.000000 10.587994 18.873298 -3.272773 2.315309 18.797625 -5.506036 -4.147613 1.075429 -14.074146 1.638100 36.096604 35.363694 -155.962862 66.772817 145.263439 0.000000 0.000000 0.000000 
-8.358511 85.814034 12.226883 0.000000 0.000000 0.000000 -4.100053 -1.813335 -2.101411 -31.583621 16.452780 27.440888 39.377909 7.699127 -1.735311 -9.032758 -5.350804 -18.812052 -4.606177 5.738328 7.776377 0.000000 0.000000 0.000000 -8.224008 0.734593 -0.075353 -9.218926 -6.982445 -4.703827 33.914696 -1.600472 3.285037 -21.597029 -2.021369 -2.818211 2.782505 2.699095 2.221906 0.000000 0.000000 0.000000 -4.517074 -15.507038 -1.228657 12.595298 8.463073 2.169828 -5.136890 14.752867 1.865720 -1.096476 2.438390 -0.194934 0.000000 0.000000 0.000000 11.492027 17.561692 -2.839657 -9.308479 11.727413 6.067893 3.360975 41.458121 -9.092115 0.000000 0.000000 0.000000 8.280858 18.054869 -2.107503 9.942476 -11.539357 6.016411 10.738975 -13.014390 -4.022429 -39.872394 6.062364 -48.872520 -96.312969 11.124162 -80.747316 0.000000 0.000000 0.000000 10.149428 17.413229 -2.160083 2.275136 17.460868 -6.858526 -3.943417 -0.316250 -13.132127 -1.294722 32.536607 35.973975 -162.993599 65.032881 151.537090 0.000000 0.000000 0.000000 
